# File created by Blade
# Date/Time:  Tue Apr 07 20:17:56 2015
# Frame Rate: 120.000 fps
#------------------------------------------------------
:FULLY-SPECIFIED
:DEGREES
1017
root 4.458413 35.371054 -8.281910 26.791543 -18.837421 -49.422707
Spine -4.173411 3.479781 26.482381
Head 8.247834 13.591252 16.595161
LeftShoulder -31.972359 47.599362 6.536236
LeftArm 49.939331 -46.891777 -87.663830
LeftForeArm -0.577743 0.000000 16.417415
LeftHand 13.144501 0.000000 12.131529
LeftHandThumb1 -26.253704 0.000000 33.147579
RightShoulder -15.842629 -24.009412 -13.168171
RightArm -4.974881 0.414190 80.434042
RightForeArm 30.400488 -0.000000 64.622179
RightHand 4.094674 -0.000000 14.057441
RightHandThumb1 -24.326973 -0.000000 -32.862282
LeftUpLeg -5.359052 11.699954 41.530092
LeftLeg 9.745856 -0.000000 -0.000000
LeftFoot -6.743807 27.434592 -13.727266
LeftToeBase -9.439700 -0.000000 0.000000
RightUpLeg -60.791620 -41.958462 -42.739622
RightLeg 151.985810 -0.000000 -0.000000
RightFoot 50.186145 17.044699 -2.197041
RightToeBase 35.496909 -0.000000 -0.000000
1018
root 4.460849 35.355581 -8.290553 26.854312 -18.838679 -49.365745
Spine -4.217364 3.461499 26.509202
Head 8.143699 13.672331 16.628507
LeftShoulder -31.903292 47.588378 6.643535
LeftArm 49.975663 -46.891222 -87.419346
LeftForeArm -0.827061 -0.000000 15.964379
LeftHand 13.264331 -0.000000 12.008370
LeftHandThumb1 -26.253704 0.000000 33.147579
RightShoulder -15.804605 -23.854806 -13.201754
RightArm -4.974759 0.594806 80.493214
RightForeArm 29.908623 -0.000000 64.595292
RightHand 4.051515 -0.000000 14.073131
RightHandThumb1 -24.326973 -0.000000 -32.862282
LeftUpLeg -5.466762 11.923070 41.103635
LeftLeg 9.415240 -0.000000 -0.000000
LeftFoot -6.200033 28.726637 -12.420472
LeftToeBase -10.337449 -0.000000 0.000000
RightUpLeg -61.172808 -42.044924 -42.391336
RightLeg 151.927602 -0.000000 -0.000000
RightFoot 50.132639 16.983632 -2.089967
RightToeBase 35.500346 -0.000000 -0.000000
1019
root 4.465951 35.336677 -8.301272 26.916970 -18.815221 -49.302784
Spine -4.259741 3.428742 26.553249
Head 8.020149 13.725489 16.667143
LeftShoulder -31.795135 47.550967 6.785460
LeftArm 49.930309 -46.891684 -87.129417
LeftForeArm -1.031350 -0.000000 15.600947
LeftHand 13.208404 0.000000 11.993063
LeftHandThumb1 -26.253704 0.000000 33.147579
RightShoulder -15.748119 -23.671607 -13.240922
RightArm -5.016550 0.705109 80.518228
RightForeArm 29.622049 -0.000000 64.581438
RightHand 4.037526 -0.000000 13.948261
RightHandThumb1 -24.326973 -0.000000 -32.862282
LeftUpLeg -5.637407 12.220700 40.668297
LeftLeg 9.165938 -0.000000 -0.000000
LeftFoot -5.837516 29.973420 -11.397628
LeftToeBase -10.613449 -0.000000 0.000000
RightUpLeg -61.497030 -42.111392 -42.102098
RightLeg 151.842249 -0.000000 -0.000000
RightFoot 50.123823 17.083120 -1.889994
RightToeBase 35.315978 -0.000000 -0.000000
1020
root 4.472843 35.312047 -8.310297 26.955764 -18.779434 -49.227644
Spine -4.283743 3.386303 26.606690
Head 7.882513 13.742886 16.673011
LeftShoulder -31.670591 47.487653 6.958111
LeftArm 49.884402 -46.875126 -86.792953
LeftForeArm -1.275820 0.000000 15.173144
LeftHand 13.259173 -0.000000 12.064367
LeftHandThumb1 -26.253704 0.000000 33.147579
RightShoulder -15.719533 -23.537283 -13.269135
RightArm -4.999080 0.726276 80.505203
RightForeArm 29.480231 -0.000000 64.539524
RightHand 4.076438 -0.000000 13.884741
RightHandThumb1 -24.326973 -0.000000 -32.862282
LeftUpLeg -5.846990 12.685186 40.222859
LeftLeg 8.983167 -0.000000 -0.000000
LeftFoot -5.394276 31.026719 -10.373254
LeftToeBase -11.266821 -0.000000 0.000000
RightUpLeg -61.848522 -42.221918 -41.743067
RightLeg 151.736302 -0.000000 -0.000000
RightFoot 50.138200 16.774076 -1.636697
RightToeBase 35.304445 -0.000000 -0.000000
1021
root 4.480660 35.284412 -8.319866 26.971012 -18.718418 -49.172149
Spine -4.270408 3.316816 26.709555
Head 7.704422 13.830894 16.631725
LeftShoulder -31.533957 47.420111 7.133513
LeftArm 49.861639 -46.916712 -86.532292
LeftForeArm -1.497439 -0.000000 14.853995
LeftHand 13.126137 -0.000000 11.832665
LeftHandThumb1 -26.253704 0.000000 33.147579
RightShoulder -15.698909 -23.404803 -13.287851
RightArm -4.949250 0.726029 80.454126
RightForeArm 29.443761 0.000000 64.527950
RightHand 3.885281 -0.000000 13.792118
RightHandThumb1 -24.326973 -0.000000 -32.862282
LeftUpLeg -6.072655 13.240906 39.807280
LeftLeg 8.856068 -0.000000 -0.000000
LeftFoot -5.041614 32.011238 -9.488291
LeftToeBase -11.540460 -0.000000 0.000000
RightUpLeg -62.149543 -42.323174 -41.373437
RightLeg 151.653285 -0.000000 -0.000000
RightFoot 50.058248 16.552953 -1.466405
RightToeBase 35.234439 -0.000000 -0.000000
1022
root 4.489137 35.254320 -8.332576 26.985638 -18.657290 -49.142217
Spine -4.234033 3.261317 26.842808
Head 7.516007 13.859805 16.583553
LeftShoulder -31.386729 47.364837 7.330174
LeftArm 49.889685 -46.914629 -86.262000
LeftForeArm -1.891548 -0.000000 14.406300
LeftHand 13.238236 -0.000000 11.878137
LeftHandThumb1 -26.253704 0.000000 33.147579
RightShoulder -15.676828 -23.314972 -13.249913
RightArm -4.842301 0.895081 80.350887
RightForeArm 28.906524 0.000000 64.557475
RightHand 3.424532 -0.000000 14.088710
RightHandThumb1 -24.326973 -0.000000 -32.862282
LeftUpLeg -6.311061 13.868416 39.431868
LeftLeg 8.800203 -0.000000 -0.000000
LeftFoot -4.901615 32.839955 -8.878317
LeftToeBase -11.991762 -0.000000 0.000000
RightUpLeg -62.473074 -42.400629 -40.955699
RightLeg 151.523616 -0.000000 -0.000000
RightFoot 50.152648 16.492820 -1.327621
RightToeBase 35.073537 -0.000000 -0.000000
1023
root 4.498634 35.218649 -8.345223 26.989072 -18.596994 -49.101435
Spine -4.178693 3.195708 26.972021
Head 7.291077 13.878097 16.521345
LeftShoulder -31.329907 47.327220 7.481703
LeftArm 50.262768 -47.032868 -86.358340
LeftForeArm -1.941312 -0.000000 13.972014
LeftHand 13.167326 -0.000000 11.742165
LeftHandThumb1 -26.253704 0.000000 33.147579
RightShoulder -15.639397 -23.226053 -13.263313
RightArm -4.774811 0.874778 80.280811
RightForeArm 28.928463 -0.000000 64.534129
RightHand 3.454436 -0.000000 14.055454
RightHandThumb1 -24.326973 -0.000000 -32.862282
LeftUpLeg -6.570249 14.506642 39.079719
LeftLeg 8.860651 -0.000000 -0.000000
LeftFoot -4.907181 33.417000 -8.380943
LeftToeBase -12.386024 -0.000000 0.000000
RightUpLeg -62.773348 -42.466951 -40.578605
RightLeg 151.438335 -0.000000 -0.000000
RightFoot 50.077415 16.225100 -1.105049
RightToeBase 34.990435 -0.000000 -0.000000
1024
root 4.508188 35.180277 -8.362227 27.023271 -18.466753 -49.091961
Spine -4.160079 3.103596 27.165511
Head 7.054777 13.943391 16.441567
LeftShoulder -31.258904 47.288152 7.644909
LeftArm 50.576305 -47.124778 -86.386776
LeftForeArm -2.126254 -0.000000 13.595255
LeftHand 13.213297 0.000000 11.620388
LeftHandThumb1 -26.253704 0.000000 33.147579
RightShoulder -15.578853 -23.147208 -13.310593
RightArm -4.717714 0.902765 80.228234
RightForeArm 28.917317 -0.000000 64.509878
RightHand 3.450997 0.000000 14.085260
RightHandThumb1 -24.326973 -0.000000 -32.862282
LeftUpLeg -6.902309 15.023847 38.832028
LeftLeg 9.029103 -0.000000 -0.000000
LeftFoot -4.995820 33.827276 -7.925251
LeftToeBase -12.712495 -0.000000 0.000000
RightUpLeg -63.059150 -42.577076 -40.153823
RightLeg 151.378387 -0.000000 -0.000000
RightFoot 49.930916 15.992542 -0.958452
RightToeBase 34.990663 -0.000000 -0.000000
1025
root 4.517976 35.134549 -8.389455 27.122317 -18.379192 -49.025955
Spine -4.207358 3.077230 27.246893
Head 6.799486 13.976670 16.434111
LeftShoulder -31.068001 47.205924 7.955632
LeftArm 50.669379 -47.217460 -86.241716
LeftForeArm -2.414534 -0.000000 13.326200
LeftHand 13.220093 -0.000000 11.497399
LeftHandThumb1 -26.253704 0.000000 33.147579
RightShoulder -15.479538 -23.030429 -13.395397
RightArm -4.778832 0.771470 80.251530
RightForeArm 29.255609 -0.000000 64.500772
RightHand 3.953918 0.000000 13.623020
RightHandThumb1 -24.326973 -0.000000 -32.862282
LeftUpLeg -7.298302 15.272713 38.579640
LeftLeg 9.297156 -0.000000 -0.000000
LeftFoot -5.206917 34.226164 -7.591770
LeftToeBase -12.936142 -0.000000 0.000000
RightUpLeg -63.498737 -42.699319 -39.731510
RightLeg 151.341247 -0.000000 -0.000000
RightFoot 49.802641 15.786817 -0.874752
RightToeBase 34.991197 -0.000000 -0.000000
1026
root 4.526944 35.088408 -8.415514 27.105277 -18.295896 -49.088184
Spine -4.033836 3.054468 27.481219
Head 6.472481 13.983639 16.321400
LeftShoulder -30.900947 47.100132 8.201831
LeftArm 50.931838 -47.365718 -86.243331
LeftForeArm -2.647973 -0.000000 13.080327
LeftHand 13.230587 -0.000000 11.323154
LeftHandThumb1 -26.253704 0.000000 33.147579
RightShoulder -15.432431 -22.924533 -13.444781
RightArm -4.715187 0.846222 80.208075
RightForeArm 29.021693 0.000000 64.506234
RightHand 3.980591 -0.000000 13.722112
RightHandThumb1 -24.326973 -0.000000 -32.862282
LeftUpLeg -7.508822 15.310303 38.565306
LeftLeg 9.633075 -0.000000 -0.000000
LeftFoot -5.622077 34.434785 -7.474719
LeftToeBase -12.904013 -0.000000 0.000000
RightUpLeg -63.846998 -42.659978 -39.247945
RightLeg 151.212629 -0.000000 -0.000000
RightFoot 49.934768 15.575340 -0.776880
RightToeBase 34.921387 -0.000000 -0.000000
1027
root 4.535869 35.033728 -8.439597 27.101707 -18.210033 -49.077506
Spine -3.928525 3.046048 27.647775
Head 6.133894 13.988795 16.188017
LeftShoulder -30.701317 47.032973 8.445201
LeftArm 51.145270 -47.526685 -86.179124
LeftForeArm -2.908437 -0.000000 12.960432
LeftHand 13.213183 -0.000000 11.130538
LeftHandThumb1 -26.253704 0.000000 33.147579
RightShoulder -15.404790 -22.835403 -13.505272
RightArm -4.648346 0.964657 80.179883
RightForeArm 28.781704 -0.000000 64.485992
RightHand 3.973323 0.000000 14.012409
RightHandThumb1 -24.326973 -0.000000 -32.862282
LeftUpLeg -7.722908 15.062481 38.550225
LeftLeg 9.953078 -0.000000 -0.000000
LeftFoot -6.178234 34.614427 -7.490808
LeftToeBase -12.828376 -0.000000 0.000000
RightUpLeg -64.126753 -42.662232 -38.934521
RightLeg 151.151688 -0.000000 -0.000000
RightFoot 49.738676 15.353290 -0.802580
RightToeBase 34.956373 -0.000000 -0.000000
